<mxfile host="app.diagrams.net" modified="2024-05-15T13:17:35.770Z" agent="Mozilla/5.0 (Windows NT 10.0; Win64; x64) AppleWebKit/537.36 (KHTML, like Gecko) Chrome/124.0.0.0 Safari/537.36" etag="3Q2m7wJ4zkecv7ZqWoes" version="24.4.0" type="github">
  <diagram name="Page-1" id="9VKdOMkNNjVv1sjmJ5IC">
    <mxGraphModel dx="954" dy="626" grid="0" gridSize="10" guides="1" tooltips="1" connect="1" arrows="1" fold="1" page="0" pageScale="1" pageWidth="850" pageHeight="1100" math="0" shadow="0">
      <root>
        <mxCell id="0" />
        <mxCell id="1" parent="0" />
        <mxCell id="S_nqhT7MlE2CXzgK_qw8-2" value="&lt;p style=&quot;line-height: 120%; font-size: 20px;&quot;&gt;BIU&lt;/p&gt;" style="rounded=0;whiteSpace=wrap;html=1;fillColor=#ffe6cc;strokeColor=#d79b00;" vertex="1" parent="1">
          <mxGeometry x="260" y="500" width="450" height="60" as="geometry" />
        </mxCell>
        <mxCell id="S_nqhT7MlE2CXzgK_qw8-3" value="&lt;font style=&quot;font-size: 20px;&quot;&gt;ITCM&lt;/font&gt;" style="rounded=0;whiteSpace=wrap;html=1;fillColor=#ffe6cc;strokeColor=#d79b00;" vertex="1" parent="1">
          <mxGeometry x="260" y="420" width="450" height="60" as="geometry" />
        </mxCell>
        <mxCell id="S_nqhT7MlE2CXzgK_qw8-4" value="IFU" style="rounded=0;whiteSpace=wrap;html=1;align=left;verticalAlign=top;" vertex="1" parent="1">
          <mxGeometry x="260" y="150" width="450" height="230" as="geometry" />
        </mxCell>
        <mxCell id="S_nqhT7MlE2CXzgK_qw8-5" value="地址判断和ICB总线控制" style="whiteSpace=wrap;html=1;aspect=fixed;fillColor=#f5f5f5;fontColor=#333333;strokeColor=#666666;" vertex="1" parent="1">
          <mxGeometry x="320" y="260" width="70" height="70" as="geometry" />
        </mxCell>
        <mxCell id="S_nqhT7MlE2CXzgK_qw8-6" value="" style="rounded=0;whiteSpace=wrap;html=1;direction=south;" vertex="1" parent="1">
          <mxGeometry x="425" y="200" width="25" height="60" as="geometry" />
        </mxCell>
        <mxCell id="S_nqhT7MlE2CXzgK_qw8-7" value="" style="rounded=0;whiteSpace=wrap;html=1;direction=south;" vertex="1" parent="1">
          <mxGeometry x="425" y="190" width="25" height="70" as="geometry" />
        </mxCell>
        <mxCell id="S_nqhT7MlE2CXzgK_qw8-10" value="" style="triangle;whiteSpace=wrap;html=1;direction=north;" vertex="1" parent="1">
          <mxGeometry x="425" y="250" width="25" height="10" as="geometry" />
        </mxCell>
        <mxCell id="S_nqhT7MlE2CXzgK_qw8-11" value="" style="rounded=0;whiteSpace=wrap;html=1;direction=south;fillColor=#dae8fc;strokeColor=#6c8ebf;" vertex="1" parent="1">
          <mxGeometry x="425" y="190" width="25" height="70" as="geometry" />
        </mxCell>
        <mxCell id="S_nqhT7MlE2CXzgK_qw8-13" value="" style="triangle;whiteSpace=wrap;html=1;direction=north;fillColor=#dae8fc;strokeColor=#6c8ebf;" vertex="1" parent="1">
          <mxGeometry x="425" y="250" width="25" height="10" as="geometry" />
        </mxCell>
        <mxCell id="S_nqhT7MlE2CXzgK_qw8-14" value="" style="rounded=0;whiteSpace=wrap;html=1;direction=south;fillColor=#dae8fc;strokeColor=#6c8ebf;" vertex="1" parent="1">
          <mxGeometry x="650" y="290" width="25" height="60" as="geometry" />
        </mxCell>
        <mxCell id="S_nqhT7MlE2CXzgK_qw8-15" value="" style="rounded=0;whiteSpace=wrap;html=1;direction=south;fillColor=#dae8fc;strokeColor=#6c8ebf;" vertex="1" parent="1">
          <mxGeometry x="650" y="280" width="25" height="70" as="geometry" />
        </mxCell>
        <mxCell id="S_nqhT7MlE2CXzgK_qw8-16" value="" style="triangle;whiteSpace=wrap;html=1;direction=north;fillColor=#dae8fc;strokeColor=#6c8ebf;" vertex="1" parent="1">
          <mxGeometry x="650" y="340" width="25" height="10" as="geometry" />
        </mxCell>
        <mxCell id="S_nqhT7MlE2CXzgK_qw8-17" value="" style="rounded=0;whiteSpace=wrap;html=1;direction=south;fillColor=#dae8fc;strokeColor=#6c8ebf;" vertex="1" parent="1">
          <mxGeometry x="650" y="280" width="25" height="70" as="geometry" />
        </mxCell>
        <mxCell id="S_nqhT7MlE2CXzgK_qw8-18" value="" style="triangle;whiteSpace=wrap;html=1;direction=north;fillColor=#dae8fc;strokeColor=#6c8ebf;" vertex="1" parent="1">
          <mxGeometry x="650" y="340" width="25" height="10" as="geometry" />
        </mxCell>
        <mxCell id="S_nqhT7MlE2CXzgK_qw8-19" value="" style="rounded=0;whiteSpace=wrap;html=1;direction=south;fillColor=#dae8fc;strokeColor=#6c8ebf;" vertex="1" parent="1">
          <mxGeometry x="650" y="200" width="25" height="60" as="geometry" />
        </mxCell>
        <mxCell id="S_nqhT7MlE2CXzgK_qw8-20" value="" style="rounded=0;whiteSpace=wrap;html=1;direction=south;fillColor=#dae8fc;strokeColor=#6c8ebf;" vertex="1" parent="1">
          <mxGeometry x="650" y="190" width="25" height="70" as="geometry" />
        </mxCell>
        <mxCell id="S_nqhT7MlE2CXzgK_qw8-21" value="" style="triangle;whiteSpace=wrap;html=1;direction=north;fillColor=#dae8fc;strokeColor=#6c8ebf;" vertex="1" parent="1">
          <mxGeometry x="650" y="250" width="25" height="10" as="geometry" />
        </mxCell>
        <mxCell id="S_nqhT7MlE2CXzgK_qw8-23" value="" style="triangle;whiteSpace=wrap;html=1;direction=north;fillColor=#dae8fc;strokeColor=#6c8ebf;" vertex="1" parent="1">
          <mxGeometry x="650" y="250" width="25" height="10" as="geometry" />
        </mxCell>
        <mxCell id="S_nqhT7MlE2CXzgK_qw8-24" value="PC生成" style="rounded=0;whiteSpace=wrap;html=1;fillColor=#f5f5f5;fontColor=#333333;strokeColor=#666666;" vertex="1" parent="1">
          <mxGeometry x="500" y="215" width="60" height="30" as="geometry" />
        </mxCell>
        <mxCell id="S_nqhT7MlE2CXzgK_qw8-25" value="SimpleBPU" style="rounded=0;whiteSpace=wrap;html=1;fillColor=#f5f5f5;fontColor=#333333;strokeColor=#666666;" vertex="1" parent="1">
          <mxGeometry x="537" y="157" width="70" height="30" as="geometry" />
        </mxCell>
        <mxCell id="S_nqhT7MlE2CXzgK_qw8-50" style="edgeStyle=none;rounded=0;orthogonalLoop=1;jettySize=auto;html=1;exitX=0.5;exitY=0;exitDx=0;exitDy=0;entryX=1;entryY=0.5;entryDx=0;entryDy=0;" edge="1" parent="1" source="S_nqhT7MlE2CXzgK_qw8-26" target="S_nqhT7MlE2CXzgK_qw8-24">
          <mxGeometry relative="1" as="geometry">
            <Array as="points">
              <mxPoint x="590" y="230" />
            </Array>
          </mxGeometry>
        </mxCell>
        <mxCell id="S_nqhT7MlE2CXzgK_qw8-26" value="MIni&lt;div&gt;decode&lt;/div&gt;" style="rounded=0;whiteSpace=wrap;html=1;fillColor=#f5f5f5;fontColor=#333333;strokeColor=#666666;" vertex="1" parent="1">
          <mxGeometry x="560" y="260" width="60" height="30" as="geometry" />
        </mxCell>
        <mxCell id="S_nqhT7MlE2CXzgK_qw8-27" value="" style="shape=trapezoid;perimeter=trapezoidPerimeter;whiteSpace=wrap;html=1;fixedSize=1;direction=south;" vertex="1" parent="1">
          <mxGeometry x="510" y="300" width="20" height="60" as="geometry" />
        </mxCell>
        <mxCell id="S_nqhT7MlE2CXzgK_qw8-28" value="PC" style="text;html=1;align=center;verticalAlign=middle;whiteSpace=wrap;rounded=0;" vertex="1" parent="1">
          <mxGeometry x="425" y="170" width="25" height="30" as="geometry" />
        </mxCell>
        <mxCell id="S_nqhT7MlE2CXzgK_qw8-29" value="PC" style="text;html=1;align=center;verticalAlign=middle;whiteSpace=wrap;rounded=0;" vertex="1" parent="1">
          <mxGeometry x="650" y="190" width="25" height="20" as="geometry" />
        </mxCell>
        <mxCell id="S_nqhT7MlE2CXzgK_qw8-30" value="IR" style="text;html=1;align=center;verticalAlign=middle;whiteSpace=wrap;rounded=0;" vertex="1" parent="1">
          <mxGeometry x="650" y="280" width="25" height="20" as="geometry" />
        </mxCell>
        <mxCell id="S_nqhT7MlE2CXzgK_qw8-32" style="edgeStyle=orthogonalEdgeStyle;rounded=0;orthogonalLoop=1;jettySize=auto;html=1;exitX=0.5;exitY=1;exitDx=0;exitDy=0;entryX=0.209;entryY=-0.056;entryDx=0;entryDy=0;entryPerimeter=0;" edge="1" parent="1" source="S_nqhT7MlE2CXzgK_qw8-5" target="S_nqhT7MlE2CXzgK_qw8-2">
          <mxGeometry relative="1" as="geometry" />
        </mxCell>
        <mxCell id="S_nqhT7MlE2CXzgK_qw8-33" style="edgeStyle=orthogonalEdgeStyle;rounded=0;orthogonalLoop=1;jettySize=auto;html=1;exitX=0;exitY=0.5;exitDx=0;exitDy=0;entryX=0.089;entryY=0.033;entryDx=0;entryDy=0;entryPerimeter=0;" edge="1" parent="1" source="S_nqhT7MlE2CXzgK_qw8-5" target="S_nqhT7MlE2CXzgK_qw8-3">
          <mxGeometry relative="1" as="geometry" />
        </mxCell>
        <mxCell id="S_nqhT7MlE2CXzgK_qw8-34" value="" style="endArrow=classic;html=1;rounded=0;entryX=0.25;entryY=1;entryDx=0;entryDy=0;exitX=0.372;exitY=0.056;exitDx=0;exitDy=0;exitPerimeter=0;" edge="1" parent="1" source="S_nqhT7MlE2CXzgK_qw8-2" target="S_nqhT7MlE2CXzgK_qw8-27">
          <mxGeometry width="50" height="50" relative="1" as="geometry">
            <mxPoint x="400" y="360" as="sourcePoint" />
            <mxPoint x="450" y="310" as="targetPoint" />
            <Array as="points">
              <mxPoint x="430" y="315" />
            </Array>
          </mxGeometry>
        </mxCell>
        <mxCell id="S_nqhT7MlE2CXzgK_qw8-36" value="" style="endArrow=classic;html=1;rounded=0;exitX=0.444;exitY=-0.033;exitDx=0;exitDy=0;exitPerimeter=0;" edge="1" parent="1" source="S_nqhT7MlE2CXzgK_qw8-3">
          <mxGeometry width="50" height="50" relative="1" as="geometry">
            <mxPoint x="460" y="390" as="sourcePoint" />
            <mxPoint x="510" y="340" as="targetPoint" />
            <Array as="points">
              <mxPoint x="460" y="340" />
            </Array>
          </mxGeometry>
        </mxCell>
        <mxCell id="S_nqhT7MlE2CXzgK_qw8-37" style="edgeStyle=orthogonalEdgeStyle;rounded=0;orthogonalLoop=1;jettySize=auto;html=1;exitX=0.5;exitY=0;exitDx=0;exitDy=0;entryX=0.714;entryY=1.24;entryDx=0;entryDy=0;entryPerimeter=0;" edge="1" parent="1" source="S_nqhT7MlE2CXzgK_qw8-27" target="S_nqhT7MlE2CXzgK_qw8-17">
          <mxGeometry relative="1" as="geometry" />
        </mxCell>
        <mxCell id="S_nqhT7MlE2CXzgK_qw8-42" value="" style="endArrow=none;html=1;rounded=0;" edge="1" parent="1">
          <mxGeometry width="50" height="50" relative="1" as="geometry">
            <mxPoint x="589.5" y="330" as="sourcePoint" />
            <mxPoint x="589.5" y="290" as="targetPoint" />
          </mxGeometry>
        </mxCell>
        <mxCell id="S_nqhT7MlE2CXzgK_qw8-44" style="edgeStyle=orthogonalEdgeStyle;rounded=0;orthogonalLoop=1;jettySize=auto;html=1;exitX=0.5;exitY=0;exitDx=0;exitDy=0;entryX=-0.1;entryY=0.322;entryDx=0;entryDy=0;entryPerimeter=0;" edge="1" parent="1" source="S_nqhT7MlE2CXzgK_qw8-11" target="S_nqhT7MlE2CXzgK_qw8-24">
          <mxGeometry relative="1" as="geometry" />
        </mxCell>
        <mxCell id="S_nqhT7MlE2CXzgK_qw8-47" value="" style="endArrow=classic;html=1;rounded=0;exitX=0.25;exitY=0;exitDx=0;exitDy=0;entryX=0.5;entryY=0;entryDx=0;entryDy=0;" edge="1" parent="1" source="S_nqhT7MlE2CXzgK_qw8-24" target="S_nqhT7MlE2CXzgK_qw8-5">
          <mxGeometry width="50" height="50" relative="1" as="geometry">
            <mxPoint x="482.73" y="215" as="sourcePoint" />
            <mxPoint x="240" y="110" as="targetPoint" />
            <Array as="points">
              <mxPoint x="515" y="170" />
              <mxPoint x="355" y="170" />
            </Array>
          </mxGeometry>
        </mxCell>
        <mxCell id="S_nqhT7MlE2CXzgK_qw8-48" value="" style="endArrow=classic;html=1;rounded=0;entryX=0.5;entryY=1;entryDx=0;entryDy=0;" edge="1" parent="1" target="S_nqhT7MlE2CXzgK_qw8-11">
          <mxGeometry width="50" height="50" relative="1" as="geometry">
            <mxPoint x="360" y="225" as="sourcePoint" />
            <mxPoint x="450" y="310" as="targetPoint" />
          </mxGeometry>
        </mxCell>
        <mxCell id="S_nqhT7MlE2CXzgK_qw8-49" value="" style="endArrow=classic;html=1;rounded=0;entryX=0.905;entryY=1;entryDx=0;entryDy=0;entryPerimeter=0;" edge="1" parent="1" target="S_nqhT7MlE2CXzgK_qw8-20">
          <mxGeometry width="50" height="50" relative="1" as="geometry">
            <mxPoint x="469" y="227" as="sourcePoint" />
            <mxPoint x="449" y="309" as="targetPoint" />
            <Array as="points">
              <mxPoint x="469" y="253" />
            </Array>
          </mxGeometry>
        </mxCell>
        <mxCell id="S_nqhT7MlE2CXzgK_qw8-51" value="" style="endArrow=classic;startArrow=classic;html=1;rounded=0;entryX=0.75;entryY=0;entryDx=0;entryDy=0;exitX=0.124;exitY=1.044;exitDx=0;exitDy=0;exitPerimeter=0;" edge="1" parent="1" source="S_nqhT7MlE2CXzgK_qw8-25" target="S_nqhT7MlE2CXzgK_qw8-24">
          <mxGeometry width="50" height="50" relative="1" as="geometry">
            <mxPoint x="399" y="359" as="sourcePoint" />
            <mxPoint x="449" y="309" as="targetPoint" />
          </mxGeometry>
        </mxCell>
        <mxCell id="S_nqhT7MlE2CXzgK_qw8-55" value="" style="endArrow=classic;html=1;rounded=0;" edge="1" parent="1">
          <mxGeometry width="50" height="50" relative="1" as="geometry">
            <mxPoint x="675" y="230" as="sourcePoint" />
            <mxPoint x="769" y="230" as="targetPoint" />
          </mxGeometry>
        </mxCell>
        <mxCell id="S_nqhT7MlE2CXzgK_qw8-56" value="" style="endArrow=classic;html=1;rounded=0;" edge="1" parent="1">
          <mxGeometry width="50" height="50" relative="1" as="geometry">
            <mxPoint x="675" y="317" as="sourcePoint" />
            <mxPoint x="769" y="317" as="targetPoint" />
          </mxGeometry>
        </mxCell>
        <mxCell id="S_nqhT7MlE2CXzgK_qw8-57" value="" style="endArrow=classic;html=1;rounded=0;entryX=1;entryY=0.25;entryDx=0;entryDy=0;" edge="1" parent="1" target="S_nqhT7MlE2CXzgK_qw8-24">
          <mxGeometry width="50" height="50" relative="1" as="geometry">
            <mxPoint x="632" y="100" as="sourcePoint" />
            <mxPoint x="449" y="309" as="targetPoint" />
            <Array as="points">
              <mxPoint x="629" y="223" />
            </Array>
          </mxGeometry>
        </mxCell>
        <mxCell id="S_nqhT7MlE2CXzgK_qw8-58" value="Flush" style="text;html=1;align=center;verticalAlign=middle;whiteSpace=wrap;rounded=0;" vertex="1" parent="1">
          <mxGeometry x="632.5" y="88" width="60" height="30" as="geometry" />
        </mxCell>
      </root>
    </mxGraphModel>
  </diagram>
</mxfile>
